<svg width="394" height="303" viewBox="0 0 394 303" fill="none" xmlns="http://www.w3.org/2000/svg">
<g clip-path="url(#clip0)">
<path d="M284.155 75L290.191 267.844C290.279 270.665 288.016 273 285.193 273H283.118C280.295 273 278.032 270.665 278.12 267.844L284.155 75Z" fill="#C5D984"/>
<path d="M221.724 93.4473L293.352 272.597C294.4 275.218 293.071 278.186 290.419 279.151L288.469 279.861C285.816 280.827 282.891 279.407 282.009 276.725L221.724 93.4473Z" fill="#C5D984"/>
<path d="M221.724 93.4473L293.352 272.597C294.4 275.218 293.071 278.186 290.419 279.151L288.469 279.861C285.816 280.827 282.891 279.407 282.009 276.725L221.724 93.4473Z" fill="#C5D984"/>
<path d="M221.724 93.4473L293.352 272.597C294.4 275.218 293.071 278.186 290.419 279.151L288.469 279.861C285.816 280.827 282.891 279.407 282.009 276.725L221.724 93.4473Z" fill="#C5D984"/>
<path d="M221.724 93.4473L293.352 272.597C294.4 275.218 293.071 278.186 290.419 279.151L288.469 279.861C285.816 280.827 282.891 279.407 282.009 276.725L221.724 93.4473Z" fill="#C5D984"/>
<path d="M351.017 88.4473L290.732 271.725C289.85 274.407 286.925 275.827 284.272 274.861L282.322 274.151C279.669 273.186 278.341 270.218 279.389 267.597L351.017 88.4473Z" fill="#C5D984"/>
<path d="M197.444 98.1103L286.706 269.158C288.012 271.661 286.989 274.747 284.446 275.974L282.577 276.877C280.035 278.104 276.982 276.984 275.835 274.405L197.444 98.1103Z" fill="#C5D984"/>
<path d="M299.355 81.5209L291.336 274.292C291.218 277.112 288.791 279.277 285.976 279.071L283.906 278.92C281.091 278.715 279.003 276.221 279.297 273.413L299.355 81.5209Z" fill="#C5D984"/>
<path d="M333.561 88.9973L285.528 275.861C284.826 278.594 282.001 280.205 279.29 279.417L277.297 278.838C274.586 278.05 273.065 275.176 273.937 272.491L333.561 88.9973Z" fill="#C5D984"/>
<path d="M236.954 82.6852L288.237 268.683C288.987 271.404 287.337 274.207 284.594 274.871L282.577 275.36C279.833 276.025 277.084 274.289 276.505 271.526L236.954 82.6852Z" fill="#C5D984"/>
<path d="M255.057 85.1813L292.846 274.382C293.399 277.15 291.552 279.827 288.768 280.293L286.721 280.636C283.937 281.102 281.32 279.172 280.941 276.375L255.057 85.1813Z" fill="#C5D984"/>
</g>
<defs>
<clipPath id="clip0">
<rect width="394" height="303" fill="white"/>
</clipPath>
</defs>
</svg>
