<svg width="549" height="704" viewBox="0 0 549 704" fill="none" xmlns="http://www.w3.org/2000/svg">
<g clip-path="url(#clip0)">
<rect x="114" y="85.526" width="19" height="101" transform="rotate(-86.8844 114 85.526)" fill="#292929"/>
<path d="M180.951 218.617C187.181 191.435 183.783 162.516 171.507 138.221C159.23 113.926 139.08 96.2444 115.488 89.0669C91.897 81.8895 66.7973 85.8037 45.7108 99.9485C24.6244 114.093 9.2784 137.31 3.04891 164.491L92 191.554L180.951 218.617Z" fill="#313131"/>
<rect x="94.1255" width="63" height="111.24" rx="5" transform="rotate(10.7115 94.1255 0)" fill="#313131"/>
<rect x="184.643" y="95.1433" width="46.4813" height="414.656" rx="5" transform="rotate(-52.6334 184.643 95.1433)" fill="#292929"/>
<rect x="331.889" y="614.749" width="46.4813" height="357.981" rx="5" transform="rotate(-144.087 331.889 614.749)" fill="#292929"/>
<ellipse cx="250.5" cy="682.554" rx="134.5" ry="21" fill="#5A5A5A"/>
<rect x="305" y="587.554" width="19" height="101" rx="5" fill="#292929"/>
<path d="M149.91 34.5924C157.327 34.5924 198.185 29.993 202.383 36.7102C204.859 40.6727 210.933 48.6801 214.501 51.5344C218.933 55.08 218.848 63.8792 221.913 68.4765" stroke="black" stroke-width="3" stroke-linecap="round"/>
<path d="M492.985 284.487C501.229 284.487 543.233 276.061 545.811 287.664C547.01 293.059 550.497 301.94 547.576 307.782C545.111 312.712 539.44 322.607 533.223 322.607" stroke="black" stroke-width="3" stroke-linecap="round"/>
<path d="M323.565 610.621C328.292 615.204 333.903 618.778 337.919 623.798C339.434 625.691 339.365 629.535 340.978 631.328C344.929 635.717 351.29 641.657 356.273 644.505C367.615 650.986 380.798 667.96 384.98 680.506" stroke="black" stroke-width="3" stroke-linecap="round"/>
</g>
<defs>
<clipPath id="clip0">
<rect width="549" height="704" fill="white"/>
</clipPath>
</defs>
</svg>
