<svg width="203" height="204" viewBox="0 0 203 204" fill="none" xmlns="http://www.w3.org/2000/svg">
<g clip-path="url(#clip0)">
<rect x="0.707107" y="106.066" width="149" height="149" rx="19.5" transform="rotate(-45 0.707107 106.066)" fill="white" stroke="black"/>
<line x1="9" y1="105.5" x2="203" y2="105.5" stroke="black"/>
<line x1="15" y1="91.5" x2="197" y2="91.5" stroke="black"/>
<line x1="29" y1="77.5" x2="183" y2="77.5" stroke="black"/>
<line x1="43" y1="63.5" x2="169" y2="63.5" stroke="black"/>
<line x1="57" y1="49.5" x2="155" y2="49.5" stroke="black"/>
<line x1="71" y1="35.5" x2="141" y2="35.5" stroke="black"/>
<line x1="85" y1="21.5" x2="127" y2="21.5" stroke="black"/>
<line x1="14" y1="119.5" x2="198" y2="119.5" stroke="black"/>
<line x1="27" y1="132.5" x2="185" y2="132.5" stroke="black"/>
<line x1="42" y1="147.5" x2="170" y2="147.496" stroke="black"/>
<line x1="56" y1="161.5" x2="156" y2="161.5" stroke="black"/>
<line x1="70" y1="175.5" x2="142" y2="175.5" stroke="black"/>
<line x1="84" y1="189.5" x2="128" y2="189.5" stroke="black"/>
</g>
<defs>
<clipPath id="clip0">
<rect width="203" height="204" fill="white"/>
</clipPath>
</defs>
</svg>
